<?xml version="1.0" standalone="no"?>
<!DOCTYPE svg PUBLIC "-//W3C//DTD SVG 20010904//EN"
 "http://www.w3.org/TR/2001/REC-SVG-20010904/DTD/svg10.dtd">
<svg version="1.0" xmlns="http://www.w3.org/2000/svg"
 width="254.000000pt" height="254.000000pt" viewBox="0 0 254.000000 254.000000"
 preserveAspectRatio="xMidYMid meet">
<metadata>
Created by potrace 1.14, written by Peter Selinger 2001-2017
</metadata>
<g transform="translate(0.000000,254.000000) scale(0.100000,-0.100000)"
fill="#000000" stroke="none">
<path d="M1258 2165 c-61 -23 -138 -80 -138 -105 0 -4 176 -184 392 -400 l391
-392 -394 -394 c-438 -438 -412 -401 -325 -461 102 -70 230 -74 337 -10 24 14
233 215 464 446 l419 420 -431 431 c-343 342 -440 434 -479 452 -59 26 -180
33 -236 13z"/>
<path d="M831 1823 c-24 -10 -60 -57 -61 -79 0 -25 49 -74 75 -74 27 0 75 49
75 76 0 13 -14 36 -32 53 -35 33 -35 33 -57 24z"/>
<path d="M512 1794 c-43 -30 -20 -104 33 -104 32 0 55 25 55 59 0 46 -50 72
-88 45z"/>
<path d="M1088 1770 c-21 -21 -38 -44 -38 -52 0 -8 18 -31 39 -52 l39 -39 48
45 47 45 -34 34 c-60 61 -60 61 -101 19z"/>
<path d="M670 1663 c-25 -10 -60 -56 -60 -80 0 -24 53 -73 80 -73 26 0 81 66
73 87 -7 20 -60 73 -71 72 -4 0 -14 -3 -22 -6z"/>
<path d="M953 1637 c-18 -18 -33 -40 -33 -49 0 -9 19 -32 41 -53 l41 -37 44
43 c47 46 47 44 -5 102 -32 35 -49 34 -88 -6z"/>
<path d="M351 1634 c-30 -22 -29 -76 3 -93 25 -14 65 -7 78 13 13 18 9 63 -6
75 -22 19 -52 21 -75 5z"/>
<path d="M505 1498 c-30 -16 -55 -50 -55 -75 0 -24 52 -73 79 -73 19 0 64 44
74 72 4 11 -5 30 -25 53 -34 38 -42 40 -73 23z"/>
<path d="M793 1476 c-18 -18 -33 -40 -33 -48 0 -9 19 -32 41 -53 l42 -37 45
46 46 46 -39 40 c-21 22 -46 40 -55 39 -8 0 -30 -15 -47 -33z"/>
<path d="M200 1477 c-48 -24 -30 -107 24 -107 55 1 79 67 36 102 -26 21 -28
21 -60 5z"/>
<path d="M351 1343 c-23 -9 -60 -56 -61 -76 0 -23 56 -77 80 -77 10 0 32 16
48 34 36 41 33 65 -10 101 -31 26 -34 27 -57 18z"/>
<path d="M633 1316 c-18 -18 -33 -40 -33 -48 0 -9 19 -33 42 -53 l41 -38 45
47 45 48 -39 39 c-21 21 -45 39 -54 39 -8 0 -30 -15 -47 -34z"/>
<path d="M32 1314 c-43 -30 -18 -104 36 -104 27 0 62 44 55 70 -6 21 -39 50
-58 50 -6 0 -21 -7 -33 -16z"/>
<path d="M479 1161 c-37 -38 -37 -66 2 -102 38 -35 49 -36 87 -4 45 38 47 62
7 102 -41 41 -58 41 -96 4z"/>
<path d="M792 1156 c-18 -19 -32 -41 -32 -49 0 -8 19 -32 42 -52 l41 -38 45
47 45 48 -39 39 c-21 21 -45 39 -54 39 -9 0 -30 -15 -48 -34z"/>
<path d="M192 1154 c-31 -22 -30 -69 3 -90 21 -14 30 -14 55 -4 25 10 30 18
30 48 0 55 -43 78 -88 46z"/>
<path d="M957 1002 c-21 -21 -37 -45 -37 -53 0 -20 61 -79 82 -79 9 0 32 18
53 41 l37 41 -34 35 c-53 56 -60 57 -101 15z"/>
<path d="M640 1001 c-17 -15 -30 -38 -30 -51 0 -26 51 -80 76 -80 9 0 31 15
49 33 40 40 38 64 -7 102 -38 32 -51 31 -88 -4z"/>
<path d="M346 991 c-25 -27 -17 -72 15 -90 24 -13 29 -13 53 2 34 22 36 69 4
91 -30 21 -51 20 -72 -3z"/>
<path d="M1094 867 c-49 -52 -50 -55 -8 -98 21 -21 43 -39 49 -39 14 0 85 72
85 87 0 12 -75 83 -88 83 -4 0 -21 -15 -38 -33z"/>
<path d="M803 844 c-42 -33 -43 -67 -3 -105 37 -36 50 -36 89 -2 39 34 40 68
4 105 -33 35 -49 35 -90 2z"/>
<path d="M507 832 c-33 -36 -15 -92 32 -99 29 -4 61 25 61 56 0 53 -60 80 -93
43z"/>
</g>
</svg>
